<svg width="26" height="23" viewBox="0 0 26 23" fill="none" xmlns="http://www.w3.org/2000/svg">
<path d="M18.4193 -0.000976562C17.2066 -0.000976562 16.0484 0.259773 14.9757 0.774465C14.2453 1.1244 13.5744 1.59007 12.9993 2.14153C12.4234 1.58939 11.7525 1.1244 11.0229 0.774465C9.95018 0.259773 8.79189 -0.000976562 7.57922 -0.000976562C3.40013 -0.000976562 0 3.19066 0 7.11348C0 9.89186 1.56371 12.8432 4.6469 15.885C7.22093 18.4244 10.373 20.5418 12.5634 21.8707L13 22.1355L13.4366 21.8707C15.627 20.5418 18.7791 18.4244 21.3538 15.885C24.437 12.8432 26 9.89186 26 7.11348C25.9985 3.19066 22.5984 -0.000976562 18.4193 -0.000976562ZM20.1868 14.8441C17.8862 17.1139 15.0837 19.0433 12.9986 20.3348C10.9141 19.0433 8.11086 17.1139 5.81026 14.8441C3.02081 12.0922 1.6065 9.49155 1.6065 7.11348C1.6065 4.02329 4.28498 1.50838 7.57778 1.50838C9.47367 1.50838 11.2151 2.32603 12.3552 3.75096L12.9978 4.55432L13.6404 3.75096C14.7806 2.32603 16.522 1.50838 18.4179 1.50838C21.7099 1.50838 24.3891 4.02261 24.3891 7.11348C24.3906 9.49155 22.9763 12.0929 20.1868 14.8441Z" fill="black"/>
</svg>
