<svg width="30" height="25" viewBox="0 0 30 25" fill="none" xmlns="http://www.w3.org/2000/svg">
<path d="M29.8195 4.38929C29.6559 4.19038 29.404 4.07358 29.1355 4.07358H7.14607L6.18607 0.606384C6.08728 0.248197 5.7434 -0.000976562 5.349 -0.000976562H0.864224C0.386865 -0.000976562 0 0.362873 0 0.810253C0 1.25834 0.387619 1.62148 0.864224 1.62148H4.68009L5.64084 5.08938L9.02686 17.3109C9.12565 17.6684 9.46952 17.9183 9.86393 17.9183H25.7488C26.1424 17.9183 26.4863 17.6684 26.5851 17.3109L29.9719 5.08938C30.0397 4.84658 29.9832 4.5882 29.8195 4.38929ZM13.5863 16.2965H10.5328L9.85337 13.8458H13.5855V16.2965H13.5863ZM13.5863 12.2227H9.40392L8.72445 9.76988H13.5855V12.2227H13.5863ZM13.5863 8.14742H8.27499L7.59553 5.69674H13.5855V8.14742H13.5863ZM20.2987 16.2965H15.3147V13.8458H20.2987V16.2965ZM20.2987 12.2227H15.3147V9.76988H20.2987V12.2227ZM20.2987 8.14742H15.3147V5.69674H20.2987V8.14742ZM25.0806 16.2965H22.0279V13.8458H25.7601L25.0806 16.2965ZM26.2096 12.2227H22.0279V9.76988H26.8898L26.2096 12.2227ZM27.3392 8.14742H22.0279V5.69674H28.0187L27.3392 8.14742Z" fill="black"/>
<path d="M12.158 18.5791C10.4167 18.5791 9.00049 19.9085 9.00049 21.5423C9.00049 23.1768 10.4167 24.5069 12.158 24.5069C13.8986 24.5069 15.3148 23.1768 15.3148 21.5423C15.3148 19.9085 13.8986 18.5791 12.158 18.5791ZM12.158 22.8844C11.37 22.8844 10.729 22.282 10.729 21.5423C10.729 20.8025 11.37 20.2016 12.158 20.2016C12.9453 20.2016 13.5864 20.8033 13.5864 21.5423C13.5864 22.2827 12.9453 22.8844 12.158 22.8844Z" fill="black"/>
<path d="M23.4561 18.5791C21.7156 18.5791 20.2993 19.9085 20.2993 21.5423C20.2993 23.1768 21.7156 24.5069 23.4561 24.5069C25.1974 24.5069 26.6136 23.1768 26.6136 21.5423C26.6136 19.9085 25.1974 18.5791 23.4561 18.5791ZM23.4561 22.8844C22.6688 22.8844 22.0278 22.282 22.0278 21.5423C22.0278 20.8025 22.6688 20.2016 23.4561 20.2016C24.2442 20.2016 24.8852 20.8033 24.8852 21.5423C24.8852 22.2827 24.2434 22.8844 23.4561 22.8844Z" fill="black"/>
</svg>
