<svg width="26" height="25" viewBox="0 0 26 25" fill="none" xmlns="http://www.w3.org/2000/svg">
<path d="M12.9986 -0.000976562C5.82141 -0.000976562 0 5.4608 0 12.2005C0 18.9402 5.82141 24.4047 12.9986 24.4047C20.1786 24.4047 26 18.9402 26 12.2005C26 5.4608 20.1807 -0.000976562 12.9986 -0.000976562ZM12.9986 3.64752C15.374 3.64752 17.3008 5.45682 17.3008 7.6839C17.3008 9.91365 15.374 11.7196 12.9986 11.7196C10.626 11.7196 8.70134 9.91365 8.70134 7.6839C8.70205 5.45615 10.626 3.64752 12.9986 3.64752ZM12.9958 21.2145C10.6288 21.2145 8.45651 20.4028 6.78375 19.0631C6.37688 18.7363 6.14195 18.2601 6.14195 17.7546C6.14195 15.4963 8.09139 13.6877 10.4972 13.6877H15.5021C17.9107 13.6877 19.851 15.4963 19.851 17.7546C19.851 18.2601 19.6168 18.7363 19.2099 19.0631C17.5378 20.4028 15.3655 21.2145 12.9958 21.2145Z" fill="#C16D49"/>
</svg>
