<svg width="37" height="10" viewBox="0 0 37 10" fill="none" xmlns="http://www.w3.org/2000/svg">
<rect width="37" height="10" fill="#F3C9CA"/>
<path d="M15.0923 6.64307C15.0923 7.0874 14.9316 7.43604 14.6104 7.68896C14.2891 7.94189 13.8459 8.06836 13.2808 8.06836C12.7157 8.06836 12.2531 7.98063 11.8931 7.80518V7.03271C12.1209 7.13981 12.3625 7.22412 12.6177 7.28564C12.8752 7.34717 13.1144 7.37793 13.3354 7.37793C13.659 7.37793 13.8971 7.31641 14.0498 7.19336C14.2048 7.07031 14.2822 6.90511 14.2822 6.69775C14.2822 6.5109 14.2116 6.35254 14.0703 6.22266C13.929 6.09277 13.6374 5.93896 13.1953 5.76123C12.7396 5.57666 12.4183 5.36589 12.2314 5.12891C12.0446 4.89193 11.9512 4.6071 11.9512 4.27441C11.9512 3.85742 12.0993 3.5293 12.3955 3.29004C12.6917 3.05078 13.0894 2.93115 13.5884 2.93115C14.0669 2.93115 14.5431 3.03597 15.0171 3.24561L14.7573 3.91211C14.313 3.72526 13.9165 3.63184 13.5679 3.63184C13.3035 3.63184 13.103 3.68994 12.9663 3.80615C12.8296 3.92008 12.7612 4.07161 12.7612 4.26074C12.7612 4.39062 12.7886 4.50228 12.8433 4.5957C12.8979 4.68685 12.988 4.77344 13.1133 4.85547C13.2386 4.9375 13.4642 5.04574 13.79 5.18018C14.1569 5.33285 14.4258 5.47526 14.5967 5.60742C14.7676 5.73958 14.8929 5.88883 14.9727 6.05518C15.0524 6.22152 15.0923 6.41748 15.0923 6.64307ZM18.3394 8L18.1787 7.47363H18.1514C17.9691 7.70378 17.7856 7.861 17.6011 7.94531C17.4165 8.02734 17.1795 8.06836 16.8901 8.06836C16.5187 8.06836 16.2282 7.9681 16.0186 7.76758C15.8112 7.56706 15.7075 7.28337 15.7075 6.9165C15.7075 6.52686 15.8522 6.23291 16.1416 6.03467C16.431 5.83643 16.8719 5.72819 17.4644 5.70996L18.1172 5.68945V5.48779C18.1172 5.24626 18.0602 5.06624 17.9463 4.94775C17.8346 4.82699 17.6603 4.7666 17.4233 4.7666C17.2297 4.7666 17.0439 4.79508 16.8662 4.85205C16.6885 4.90902 16.5176 4.97624 16.3535 5.05371L16.0938 4.47949C16.2988 4.3724 16.5233 4.2915 16.7671 4.23682C17.0109 4.17985 17.241 4.15137 17.4575 4.15137C17.9383 4.15137 18.3006 4.25618 18.5444 4.46582C18.7905 4.67546 18.9136 5.00472 18.9136 5.45361V8H18.3394ZM17.1431 7.45312C17.4347 7.45312 17.6683 7.37223 17.8438 7.21045C18.0215 7.04639 18.1104 6.81738 18.1104 6.52344V6.19531L17.625 6.21582C17.2467 6.22949 16.971 6.29329 16.7979 6.40723C16.627 6.51888 16.5415 6.69092 16.5415 6.92334C16.5415 7.09196 16.5916 7.22298 16.6919 7.31641C16.7922 7.40755 16.9425 7.45312 17.1431 7.45312ZM20.8379 8H20.0347V2.68164H20.8379V8ZM23.6406 8.06836C23.0527 8.06836 22.5924 7.89746 22.2598 7.55566C21.9294 7.21159 21.7642 6.73877 21.7642 6.13721C21.7642 5.51969 21.918 5.03434 22.2256 4.68115C22.5332 4.32796 22.9559 4.15137 23.4937 4.15137C23.9927 4.15137 24.3869 4.3029 24.6763 4.60596C24.9657 4.90902 25.1104 5.32601 25.1104 5.85693V6.29102H22.5913C22.6027 6.65788 22.7018 6.94043 22.8887 7.13867C23.0755 7.33464 23.3387 7.43262 23.6782 7.43262C23.9015 7.43262 24.1089 7.41211 24.3003 7.37109C24.494 7.3278 24.7013 7.25716 24.9224 7.15918V7.81201C24.7264 7.90544 24.5282 7.97152 24.3276 8.01025C24.1271 8.04899 23.8981 8.06836 23.6406 8.06836ZM23.4937 4.75977C23.2384 4.75977 23.0334 4.84066 22.8784 5.00244C22.7257 5.16423 22.6346 5.40007 22.605 5.70996H24.3208C24.3162 5.39779 24.241 5.16195 24.0952 5.00244C23.9494 4.84066 23.7489 4.75977 23.4937 4.75977Z" fill="black"/>
</svg>
